<svg xmlns="http://www.w3.org/2000/svg" height="1024" preserveAspectRatio="none" style="display: block;" version="1.1" viewBox="0 0 2048 2048" width="1024">
<defs>
	<linearGradient gradientUnits="userSpaceOnUse" id="Gradient1" x1="949.569" x2="1100.78" y1="1400.8" y2="1389.39">
		<stop class="stop0" offset="0" stop-color="rgb(188,141,66)" stop-opacity="1"></stop>
		<stop class="stop1" offset="1" stop-color="rgb(229,188,119)" stop-opacity="1"></stop>
	</linearGradient>
	<linearGradient gradientUnits="userSpaceOnUse" id="Gradient2" x1="914.141" x2="1133.88" y1="682.405" y2="715.92">
		<stop class="stop0" offset="0" stop-color="rgb(221,183,110)" stop-opacity="1"></stop>
		<stop class="stop1" offset="1" stop-color="rgb(253,217,147)" stop-opacity="1"></stop>
	</linearGradient>
	<linearGradient gradientUnits="userSpaceOnUse" id="Gradient3" x1="851.379" x2="1170.06" y1="752.129" y2="872.305">
		<stop class="stop0" offset="0" stop-color="rgb(220,179,108)" stop-opacity="1"></stop>
		<stop class="stop1" offset="1" stop-color="rgb(254,220,151)" stop-opacity="1"></stop>
	</linearGradient>
	<linearGradient gradientUnits="userSpaceOnUse" id="Gradient4" x1="813.397" x2="1010.96" y1="1045.31" y2="1049.63">
		<stop class="stop0" offset="0" stop-color="rgb(221,180,108)" stop-opacity="1"></stop>
		<stop class="stop1" offset="1" stop-color="rgb(249,214,145)" stop-opacity="1"></stop>
	</linearGradient>
</defs>
<path d="M 0 0 L 2048 0 L 2048 2048 L 0 2048 L 0 0 z" fill="rgb(24,24,24)" transform="translate(0,0)"></path>
<path d="M 1024.41 1012.52 C 1029.19 999.374 1036.06 985.248 1044.93 974.367 C 1067.8 946.317 1096.36 920.612 1121.65 894.676 C 1155.57 859.894 1189.52 825.726 1224.31 791.874 C 1235.56 825.323 1233.5 853.421 1233.66 888.065 C 1233.81 925.555 1233.75 963.046 1233.48 1000.54 C 1233.12 1082.53 1234.61 1165.72 1233.86 1247.33 C 1217.7 1262.83 1197.38 1283.65 1181.02 1297.95 C 1180.52 1212.9 1180.49 1127.84 1180.91 1042.79 C 1180.99 1000.21 1182.02 951.54 1180.68 909.369 C 1163.77 927.548 1145.97 943.509 1127.96 960.552 C 1112.14 975.71 1096.4 990.949 1080.74 1006.27 C 1046.48 1039.23 1031.85 1046.63 1022.95 1095.26 C 1020.01 1078.18 1019.02 1070.3 1013.3 1054.06 C 1014.05 1043.57 1003.77 985.542 1001.75 970.287 C 1011.26 981.834 1019.5 998.41 1024.41 1012.52 z" fill="rgb(5,154,98)" transform="translate(0,0)"></path>
<path d="M 826.283 794.856 C 837.487 805.22 849.583 818.009 860.557 828.874 L 933.966 901.593 C 948.781 916.308 990.177 955.342 1001.75 970.287 C 1003.77 985.542 1014.05 1043.57 1013.3 1054.06 C 997.811 1034.88 970.034 1010.66 951.312 993.29 C 921.848 965.946 892.813 938.142 864.219 909.889 C 865.293 962.529 864.696 1016.94 864.661 1069.62 L 864.858 1296.54 C 848.557 1280.68 832.488 1264.58 816.656 1248.25 L 816.94 969.607 L 816.622 885.773 C 816.396 848.194 814.46 831.117 826.283 794.856 z" fill="url(#Gradient4)" transform="translate(0,0)"></path>
<path d="M 721.379 896.33 C 738.838 879.657 757.749 858.924 774.171 843.633 L 774.473 1066.22 C 774.492 1112.16 775.022 1159.69 774.034 1205.55 C 757.398 1189.3 737.843 1170.83 721.983 1154.07 C 684.584 1115.23 643.38 1088.75 641.934 1027.82 C 640.437 964.759 682.305 937.247 721.379 896.33 z" fill="rgb(203,158,84)" transform="translate(0,0)"></path>
<path d="M 721.379 896.33 C 722.304 927.421 721.789 960.988 721.844 992.281 L 721.983 1154.07 C 684.584 1115.23 643.38 1088.75 641.934 1027.82 C 640.437 964.759 682.305 937.247 721.379 896.33 z" fill="rgb(5,154,98)" transform="translate(0,0)"></path>
<path d="M 1275.01 844.388 C 1292.88 862.693 1311 880.754 1329.37 898.566 C 1367.33 936.721 1407.62 967.297 1407.08 1025.55 C 1406.7 1065.68 1387.84 1095.83 1360.23 1123.21 C 1350.05 1133.12 1339.69 1142.86 1329.17 1152.41 C 1326.05 1156.63 1313.54 1168.3 1309.49 1172.13 C 1298.05 1182.76 1286.79 1193.59 1275.73 1204.61 C 1274.04 1085.81 1275.38 963.553 1275.01 844.388 z" fill="rgb(246,208,134)" transform="translate(0,0)"></path>
<path d="M 1329.37 898.566 C 1367.33 936.721 1407.62 967.297 1407.08 1025.55 C 1406.7 1065.68 1387.84 1095.83 1360.23 1123.21 C 1350.05 1133.12 1339.69 1142.86 1329.17 1152.41 C 1328.96 1141.32 1329.01 1129.87 1329.12 1118.78 C 1329.85 1045.5 1328.04 971.807 1329.37 898.566 z" fill="rgb(5,154,98)" transform="translate(0,0)"></path>
<path d="M 932.929 1093.35 C 970.761 1093.73 1008.6 1093.82 1046.43 1093.61 C 1066.38 1093.49 1090.66 1092.69 1110.26 1093.47 L 1110.17 1143.99 C 1082.05 1143.97 1052.34 1144.38 1024.36 1143.47 C 1041.44 1240.45 1071.15 1280.39 1153.44 1332.19 C 1137.53 1336.67 1118.43 1339.5 1102.07 1342.23 C 1017.11 1353.92 977.123 1350.15 893.918 1332.9 C 974.056 1276.92 1003.12 1242.7 1021.89 1143.58 C 992.594 1144.2 962.373 1143.92 933.005 1143.99 L 932.929 1093.35 z" fill="rgb(5,154,98)" transform="translate(0,0)"></path>
<path d="M 1023.35 832.165 C 1058.33 779.893 1105.51 742.345 1170.98 740.827 C 1182.81 753.379 1197.57 768.75 1210.43 779.956 C 1170.15 782.228 1153.79 784.076 1118.4 804.585 C 1065.78 838.683 1035.81 889.959 1021.97 950.173 C 1008.52 894.749 985.607 851.733 939.918 816.089 C 906.766 790.226 880.136 782.228 838.973 779.646 C 852.143 766.95 865.215 754.152 878.188 741.254 C 944.732 743.224 988.904 777.477 1023.35 832.165 z" fill="url(#Gradient3)" transform="translate(0,0)"></path>
<path d="M 1015.67 632.416 C 1018.1 632.196 1020.55 632.079 1022.99 632.065 C 1077.93 632.226 1104.86 669.524 1140.91 705.384 C 1130.23 706.039 1121.62 706.277 1111 708.347 C 1077.14 714.989 1047.34 734.881 1028.22 763.601 L 1024.28 770.117 C 1019.5 762.356 1014.12 754.974 1008.21 748.036 C 981.412 716.939 946.961 708.708 907.445 705.881 C 943.052 670.808 962.556 637.195 1015.67 632.416 z" fill="url(#Gradient2)" transform="translate(0,0)"></path>
<path d="M 1027.06 1377.51 C 1053.18 1377.21 1079.3 1377.13 1105.42 1377.26 C 1095.4 1388.86 1077.24 1404.86 1065.45 1416.32 C 1050.85 1416.81 1035.69 1416.74 1021.03 1416.85 L 983.14 1416.71 C 970.173 1404.08 957.301 1390.69 944.33 1377.9 C 971.682 1377.44 999.662 1377.62 1027.06 1377.51 z" fill="url(#Gradient1)" transform="translate(0,0)"></path>
<metadata><recraft-signature>{"signed_by": "recraft", "signature_b64": "XYxqJDA6j30vg2SftYuRQN30nuIbgdwwUCbt4LGzir7x8PRvyut8yF8nH+G7ZcMuZN3aKtQGezMlW2m3E+dDDw==", "signing_algo": "Ed25519", "generation_timestamp": 1781282772, "identifier": "694b51d0-8eda-4764-89d2-0a959fb46057"}</recraft-signature></metadata></svg>